<svg id="visual" viewBox="0 0 960 300" width="960" height="300" xmlns="http://www.w3.org/2000/svg" xmlns:xlink="http://www.w3.org/1999/xlink" version="1.1"><rect x="0" y="0" width="960" height="300" fill="#000000"></rect><path d="M0 212L22.8 211.7C45.7 211.3 91.3 210.7 137 212C182.7 213.3 228.3 216.7 274 221.7C319.7 226.7 365.3 233.3 411.2 239.5C457 245.7 503 251.3 548.8 254C594.7 256.7 640.3 256.3 686 253.2C731.7 250 777.3 244 823 236.7C868.7 229.3 914.3 220.7 937.2 216.3L960 212L960 301L937.2 301C914.3 301 868.7 301 823 301C777.3 301 731.7 301 686 301C640.3 301 594.7 301 548.8 301C503 301 457 301 411.2 301C365.3 301 319.7 301 274 301C228.3 301 182.7 301 137 301C91.3 301 45.7 301 22.8 301L0 301Z" fill="#7e8d1b" stroke-linecap="round" stroke-linejoin="miter"></path></svg>